<svg width="24" height="24" viewBox="0 0 24 24" fill="none" xmlns="http://www.w3.org/2000/svg">
<path d="M10.5 4.5C10.5 3.62479 10.1523 2.78542 9.5334 2.16655C8.91453 1.54768 8.07517 1.2 7.19995 1.2C6.32474 1.2 5.48537 1.54768 4.8665 2.16655C4.24763 2.78542 3.89995 3.62479 3.89995 4.5C3.89995 5.37522 4.24763 6.21458 4.8665 6.83345C5.48537 7.45232 6.32474 7.8 7.19995 7.8C8.07517 7.8 8.91453 7.45232 9.5334 6.83345C10.1523 6.21458 10.5 5.37522 10.5 4.5ZM5.09995 4.5C5.09995 4.22423 5.15427 3.95115 5.2598 3.69637C5.36534 3.44158 5.52002 3.21008 5.71503 3.01508C5.91003 2.82007 6.14153 2.66539 6.39632 2.55985C6.6511 2.45432 6.92418 2.4 7.19995 2.4C7.47573 2.4 7.7488 2.45432 8.00359 2.55985C8.25837 2.66539 8.48987 2.82007 8.68488 3.01508C8.87988 3.21008 9.03456 3.44158 9.1401 3.69637C9.24563 3.95115 9.29995 4.22423 9.29995 4.5C9.29995 5.05696 9.0787 5.5911 8.68488 5.98493C8.29105 6.37875 7.75691 6.6 7.19995 6.6C6.643 6.6 6.10885 6.37875 5.71503 5.98493C5.3212 5.5911 5.09995 5.05696 5.09995 4.5ZM2.99995 9H8.01955C7.82275 9.372 7.67635 9.7752 7.58995 10.2H2.99995C2.84082 10.2 2.68821 10.2632 2.57569 10.3757C2.46317 10.4883 2.39995 10.6409 2.39995 10.8V11.4C2.39995 12.912 3.71875 14.5368 6.11515 14.916C5.72875 15.18 5.40715 15.5316 5.17795 15.9408C2.64595 15.2556 1.19995 13.3044 1.19995 11.4V10.8C1.19995 10.3226 1.38959 9.86477 1.72716 9.52721C2.06472 9.18964 2.52256 9 2.99995 9ZM9.45475 9C10.0596 8.268 10.9752 7.8 12 7.8C12.7186 7.79875 13.4179 8.03263 13.9912 8.46596C14.5645 8.89929 14.9803 9.50828 15.1752 10.2C15.3488 10.8174 15.339 11.472 15.147 12.0839C14.9549 12.6959 14.5889 13.2386 14.0936 13.6461C13.5982 14.0535 12.995 14.3079 12.3575 14.3783C11.72 14.4487 11.0758 14.3319 10.5036 14.0424C10.0629 13.8181 9.67833 13.4977 9.37816 13.1049C9.078 12.712 8.86995 12.2567 8.76938 11.7727C8.66881 11.2886 8.67829 10.7881 8.79713 10.3082C8.91597 9.82829 9.13992 9.38121 9.45475 9ZM10.1028 10.2C9.98456 10.4493 9.91663 10.7194 9.90284 10.995C9.88905 11.2705 9.92967 11.5461 10.0224 11.806C10.1151 12.0658 10.2581 12.3049 10.4432 12.5095C10.6283 12.7141 10.8519 12.8802 11.1012 12.9984C11.3505 13.1166 11.6206 13.1845 11.8961 13.1983C12.1717 13.2121 12.4473 13.1715 12.7071 13.0788C12.967 12.9861 13.206 12.8431 13.4106 12.658C13.6152 12.4729 13.7814 12.2493 13.8996 12C14.1382 11.4964 14.1671 10.9185 13.9797 10.3936C13.7924 9.86869 13.4042 9.4397 12.9006 9.201C12.3969 8.96231 11.8191 8.93346 11.2942 9.12081C10.7692 9.30816 10.3414 9.69635 10.1028 10.2ZM18.822 15.9408C18.5934 15.5314 18.2725 15.1809 17.8848 14.9172C20.28 14.5368 21.6 12.9108 21.6 11.4V10.8C21.6 10.6409 21.5367 10.4883 21.4242 10.3757C21.3117 10.2632 21.1591 10.2 21 10.2H16.41C16.3252 9.7816 16.1809 9.3775 15.9816 9H21C21.4773 9 21.9352 9.18964 22.2727 9.52721C22.6103 9.86477 22.8 10.3226 22.8 10.8V11.4C22.8 13.3044 21.3528 15.2544 18.822 15.9408ZM17.3844 16.0452C17.0568 15.7577 16.6358 15.5994 16.2 15.6H7.79995C7.56339 15.5994 7.32904 15.6455 7.11037 15.7357C6.8917 15.826 6.69302 15.9585 6.52575 16.1258C6.35848 16.2931 6.22591 16.4918 6.13568 16.7104C6.04544 16.9291 5.99932 17.1634 5.99995 17.4V18C5.99995 20.3652 8.23195 22.8 12 22.8C15.768 22.8 18 20.3652 18 18V17.4C18 16.86 17.7624 16.3752 17.3844 16.044V16.0452ZM7.19995 17.4C7.19995 17.2409 7.26317 17.0883 7.37569 16.9757C7.48821 16.8632 7.64082 16.8 7.79995 16.8H16.2C16.3591 16.8 16.5117 16.8632 16.6242 16.9757C16.7367 17.0883 16.8 17.2409 16.8 17.4V18C16.8 19.7256 15.0816 21.6 12 21.6C8.91835 21.6 7.19995 19.7256 7.19995 18V17.4ZM16.8 1.2C17.6752 1.2 18.5145 1.54768 19.1334 2.16655C19.7523 2.78542 20.1 3.62479 20.1 4.5C20.1 5.37522 19.7523 6.21458 19.1334 6.83345C18.5145 7.45232 17.6752 7.8 16.8 7.8C15.9247 7.8 15.0854 7.45232 14.4665 6.83345C13.8476 6.21458 13.5 5.37522 13.5 4.5C13.5 3.62479 13.8476 2.78542 14.4665 2.16655C15.0854 1.54768 15.9247 1.2 16.8 1.2ZM16.8 2.4C16.243 2.4 15.7089 2.62125 15.315 3.01508C14.9212 3.4089 14.7 3.94305 14.7 4.5C14.7 5.05696 14.9212 5.5911 15.315 5.98493C15.7089 6.37875 16.243 6.6 16.8 6.6C17.3569 6.6 17.8911 6.37875 18.2849 5.98493C18.6787 5.5911 18.9 5.05696 18.9 4.5C18.9 3.94305 18.6787 3.4089 18.2849 3.01508C17.8911 2.62125 17.3569 2.4 16.8 2.4Z" fill="black"/>
</svg>
