<svg width="24" height="24" viewBox="0 0 24 24" fill="none" xmlns="http://www.w3.org/2000/svg">
<path d="M11.4 7.8C11.4 7.64087 11.3368 7.48826 11.2243 7.37574C11.1118 7.26321 10.9592 7.2 10.8 7.2C10.6409 7.2 10.4883 7.26321 10.3758 7.37574C10.2632 7.48826 10.2 7.64087 10.2 7.8V10.2H7.80002C7.64089 10.2 7.48828 10.2632 7.37576 10.3757C7.26324 10.4883 7.20002 10.6409 7.20002 10.8C7.20002 10.9591 7.26324 11.1117 7.37576 11.2243C7.48828 11.3368 7.64089 11.4 7.80002 11.4H10.2V13.8C10.2 13.9591 10.2632 14.1117 10.3758 14.2243C10.4883 14.3368 10.6409 14.4 10.8 14.4C10.9592 14.4 11.1118 14.3368 11.2243 14.2243C11.3368 14.1117 11.4 13.9591 11.4 13.8V11.4H13.8C13.9592 11.4 14.1118 11.3368 14.2243 11.2243C14.3368 11.1117 14.4 10.9591 14.4 10.8C14.4 10.6409 14.3368 10.4883 14.2243 10.3757C14.1118 10.2632 13.9592 10.2 13.8 10.2H11.4V7.8ZM5.40002 2.4C4.60438 2.4 3.84131 2.71607 3.2787 3.27868C2.71609 3.84129 2.40002 4.60435 2.40002 5.4V16.2C2.40002 16.9956 2.71609 17.7587 3.2787 18.3213C3.84131 18.8839 4.60438 19.2 5.40002 19.2H16.2C16.9957 19.2 17.7587 18.8839 18.3213 18.3213C18.884 17.7587 19.2 16.9956 19.2 16.2V5.4C19.2 4.60435 18.884 3.84129 18.3213 3.27868C17.7587 2.71607 16.9957 2.4 16.2 2.4H5.40002ZM3.60002 5.4C3.60002 4.92261 3.78967 4.46477 4.12723 4.12721C4.4648 3.78964 4.92263 3.6 5.40002 3.6H16.2C16.6774 3.6 17.1353 3.78964 17.4728 4.12721C17.8104 4.46477 18 4.92261 18 5.4V16.2C18 16.6774 17.8104 17.1352 17.4728 17.4728C17.1353 17.8104 16.6774 18 16.2 18H5.40002C4.92263 18 4.4648 17.8104 4.12723 17.4728C3.78967 17.1352 3.60002 16.6774 3.60002 16.2V5.4ZM9.00002 21.6C7.90047 21.6016 6.84443 21.1705 6.06002 20.4H17.4C18.1957 20.4 18.9587 20.0839 19.5213 19.5213C20.084 18.9587 20.4 18.1957 20.4 17.4V6.06C21.1428 6.8184 21.6 7.8552 21.6 9V17.4C21.6 18.5139 21.1575 19.5822 20.3699 20.3699C19.5822 21.1575 18.5139 21.6 17.4 21.6H9.00002Z" fill="black"/>
</svg>
