<svg width="20" height="20" viewBox="0 0 20 20" fill="none" xmlns="http://www.w3.org/2000/svg">
<path d="M17.5 15.8333V10.2225C17.5 9.77038 17.408 9.32298 17.2297 8.90753C17.0513 8.49207 16.7903 8.11724 16.4625 7.80584L11.1483 2.75834C10.8386 2.46408 10.4277 2.3 10.0004 2.3C9.57318 2.3 9.16225 2.46408 8.8525 2.75834L3.5375 7.80584C3.20971 8.11724 2.9487 8.49207 2.77034 8.90753C2.59198 9.32298 2.5 9.77038 2.5 10.2225V15.8333C2.5 16.2754 2.67559 16.6993 2.98816 17.0118C3.30072 17.3244 3.72464 17.5 4.16667 17.5H15.8333C16.2754 17.5 16.6993 17.3244 17.0118 17.0118C17.3244 16.6993 17.5 16.2754 17.5 15.8333Z" stroke="#F00751" stroke-width="2" stroke-linecap="round" stroke-linejoin="round"/>
</svg>
