<svg width="29" height="27" viewBox="0 0 29 27" fill="none" xmlns="http://www.w3.org/2000/svg">
<path d="M6.04163 3.375H13.2916C14.253 3.375 15.1751 3.73058 15.8549 4.36351C16.5347 4.99645 16.9166 5.85489 16.9166 6.75V11.25H15.7083V6.75C15.7083 6.15326 15.4537 5.58097 15.0005 5.15901C14.5473 4.73705 13.9326 4.5 13.2916 4.5H6.04163C5.40069 4.5 4.786 4.73705 4.33278 5.15901C3.87957 5.58097 3.62496 6.15326 3.62496 6.75V21.375C3.62496 21.9717 3.87957 22.544 4.33278 22.966C4.786 23.3879 5.40069 23.625 6.04163 23.625H13.2916C13.9326 23.625 14.5473 23.3879 15.0005 22.966C15.4537 22.544 15.7083 21.9717 15.7083 21.375V16.875H16.9166V21.375C16.9166 22.2701 16.5347 23.1286 15.8549 23.7615C15.1751 24.3944 14.253 24.75 13.2916 24.75H6.04163C5.08022 24.75 4.15818 24.3944 3.47836 23.7615C2.79854 23.1286 2.41663 22.2701 2.41663 21.375V6.75C2.41663 5.85489 2.79854 4.99645 3.47836 4.36351C4.15818 3.73058 5.08022 3.375 6.04163 3.375ZM9.66663 13.5H23.2604L19.3333 9.84375L20.1308 9L25.5683 14.0625L20.1308 19.125L19.3333 18.2812L23.2604 14.625H9.66663V13.5Z" fill="black"/>
</svg>
