<svg width="24" height="24" viewBox="0 0 24 24" fill="none" xmlns="http://www.w3.org/2000/svg">
<path d="M8 6C8 4.93913 8.42143 3.92172 9.17157 3.17157C9.92172 2.42143 10.9391 2 12 2C13.0609 2 14.0783 2.42143 14.8284 3.17157C15.5786 3.92172 16 4.93913 16 6V12C16 13.0609 15.5786 14.0783 14.8284 14.8284C14.0783 15.5786 13.0609 16 12 16C10.9391 16 9.92172 15.5786 9.17157 14.8284C8.42143 14.0783 8 13.0609 8 12V6ZM12 3.25C11.2707 3.25 10.5712 3.53973 10.0555 4.05546C9.53973 4.57118 9.25 5.27065 9.25 6V12C9.25 12.7293 9.53973 13.4288 10.0555 13.9445C10.5712 14.4603 11.2707 14.75 12 14.75C12.7293 14.75 13.4288 14.4603 13.9445 13.9445C14.4603 13.4288 14.75 12.7293 14.75 12V6C14.75 5.27065 14.4603 4.57118 13.9445 4.05546C13.4288 3.53973 12.7293 3.25 12 3.25ZM12.5 18.8575C16.1325 18.601 19 15.5725 19 11.875C19 11.7092 18.9342 11.5503 18.8169 11.4331C18.6997 11.3158 18.5408 11.25 18.375 11.25C18.2092 11.25 18.0503 11.3158 17.9331 11.4331C17.8158 11.5503 17.75 11.7092 17.75 11.875C17.75 15.0505 15.1755 17.625 12 17.625C8.8245 17.625 6.25 15.0505 6.25 11.875C6.25 11.7092 6.18415 11.5503 6.06694 11.4331C5.94973 11.3158 5.79076 11.25 5.625 11.25C5.45924 11.25 5.30027 11.3158 5.18306 11.4331C5.06585 11.5503 5 11.7092 5 11.875C5 15.4875 7.7365 18.461 11.25 18.835V21.375C11.25 21.5408 11.3158 21.6997 11.4331 21.8169C11.5503 21.9342 11.7092 22 11.875 22C12.0408 22 12.1997 21.9342 12.3169 21.8169C12.4342 21.6997 12.5 21.5408 12.5 21.375V18.8575Z" fill="#777777"/>
</svg>
