<svg width="24" height="24" viewBox="0 0 24 24" fill="none" xmlns="http://www.w3.org/2000/svg">
<path d="M20.031 20.79C20.491 21.25 21.201 20.54 20.741 20.09L16.991 16.33C18.3064 14.8745 19.0336 12.9818 19.031 11.02C19.031 6.63 15.461 3.06 11.071 3.06C6.68102 3.06 3.11102 6.63 3.11102 11.02C3.11102 15.41 6.68102 18.98 11.071 18.98C13.051 18.98 14.881 18.25 16.281 17.04L20.031 20.79ZM4.11002 11.02C4.11002 7.18 7.24002 4.06 11.07 4.06C14.91 4.06 18.03 7.18 18.03 11.02C18.03 14.86 14.91 17.98 11.07 17.98C7.24002 17.98 4.11002 14.86 4.11002 11.02Z" fill="#777777"/>
</svg>
