<svg width="20" height="22" viewBox="0 0 20 22" fill="none" xmlns="http://www.w3.org/2000/svg">
<path d="M19.6751 13.6648L18.1399 12.3523C18.2126 11.907 18.2501 11.4523 18.2501 10.9977C18.2501 10.543 18.2126 10.0883 18.1399 9.64297L19.6751 8.33047C19.7908 8.23135 19.8737 8.09932 19.9127 7.95196C19.9516 7.80459 19.9447 7.64886 19.893 7.50547L19.8719 7.44454C19.4493 6.26335 18.8165 5.16837 18.004 4.21251L17.9618 4.16329C17.8632 4.04739 17.7318 3.96408 17.585 3.92434C17.4381 3.88459 17.2827 3.89027 17.1391 3.94063L15.2336 4.61797C14.5305 4.04141 13.7454 3.58672 12.8969 3.26797L12.529 1.27579C12.5012 1.12589 12.4285 0.987981 12.3205 0.880392C12.2125 0.772803 12.0743 0.700623 11.9243 0.673444L11.861 0.661725C10.6399 0.441412 9.35552 0.441412 8.13443 0.661725L8.07115 0.673444C7.92114 0.700623 7.78295 0.772803 7.67494 0.880392C7.56694 0.987981 7.49422 1.12589 7.46646 1.27579L7.09615 3.27735C6.25448 3.59617 5.47068 4.05061 4.77584 4.62266L2.8563 3.94063C2.71279 3.88987 2.55722 3.88398 2.41028 3.92375C2.26333 3.96353 2.13197 4.04707 2.03365 4.16329L1.99146 4.21251C1.17993 5.16905 0.547185 6.26384 0.123491 7.44454L0.102397 7.50547C-0.00307146 7.79844 0.0836473 8.12657 0.320366 8.33047L1.87427 9.65704C1.80162 10.0977 1.76646 10.5477 1.76646 10.9953C1.76646 11.4453 1.80162 11.8953 1.87427 12.3336L0.320366 13.6602C0.204575 13.7593 0.121702 13.8913 0.082766 14.0387C0.0438306 14.186 0.0506777 14.3418 0.102397 14.4852L0.123491 14.5461C0.54771 15.7273 1.17583 16.8172 1.99146 17.7781L2.03365 17.8273C2.13221 17.9432 2.26358 18.0266 2.41043 18.0663C2.55729 18.106 2.71274 18.1004 2.8563 18.05L4.77584 17.368C5.47427 17.9422 6.25474 18.3969 7.09615 18.7133L7.46646 20.7148C7.49422 20.8647 7.56694 21.0027 7.67494 21.1102C7.78295 21.2178 7.92114 21.29 8.07115 21.3172L8.13443 21.3289C9.36674 21.5504 10.6287 21.5504 11.861 21.3289L11.9243 21.3172C12.0743 21.29 12.2125 21.2178 12.3205 21.1102C12.4285 21.0027 12.5012 20.8647 12.529 20.7148L12.8969 18.7227C13.745 18.4047 14.5346 17.9486 15.2336 17.3727L17.1391 18.05C17.2826 18.1008 17.4382 18.1067 17.5851 18.0669C17.7321 18.0271 17.8634 17.9436 17.9618 17.8273L18.004 17.7781C18.8196 16.8148 19.4477 15.7273 19.8719 14.5461L19.893 14.4852C19.9985 14.1969 19.9118 13.8688 19.6751 13.6648ZM16.4758 9.91954C16.5344 10.2734 16.5649 10.6367 16.5649 11C16.5649 11.3633 16.5344 11.7266 16.4758 12.0805L16.3211 13.0203L18.0719 14.518C17.8065 15.1294 17.4715 15.7083 17.0735 16.243L14.8985 15.4719L14.1626 16.0766C13.6024 16.5359 12.979 16.8969 12.304 17.15L11.411 17.4852L10.9915 19.7586C10.3295 19.8336 9.66122 19.8336 8.99927 19.7586L8.57974 17.4805L7.6938 17.1406C7.02584 16.8875 6.40474 16.5266 5.84927 16.0695L5.11334 15.4625L2.92427 16.2406C2.52584 15.7039 2.19302 15.125 1.92583 14.5156L3.69537 13.0039L3.54302 12.0664C3.48677 11.7172 3.4563 11.3563 3.4563 11C3.4563 10.6414 3.48443 10.2828 3.54302 9.9336L3.69537 8.9961L1.92583 7.48438C2.19068 6.87266 2.52584 6.2961 2.92427 5.75938L5.11334 6.53751L5.84927 5.93047C6.40474 5.47344 7.02584 5.11251 7.6938 4.85938L8.58208 4.52422L9.00162 2.2461C9.66021 2.1711 10.3329 2.1711 10.9938 2.2461L11.4133 4.51954L12.3063 4.85469C12.979 5.10782 13.6047 5.46876 14.1649 5.92813L14.9008 6.53282L17.0758 5.76172C17.4743 6.29844 17.8071 6.87735 18.0743 7.48672L16.3235 8.98438L16.4758 9.91954ZM10.0001 6.64063C7.72193 6.64063 5.87505 8.48751 5.87505 10.7656C5.87505 13.0438 7.72193 14.8906 10.0001 14.8906C12.2782 14.8906 14.1251 13.0438 14.1251 10.7656C14.1251 8.48751 12.2782 6.64063 10.0001 6.64063ZM11.8563 12.6219C11.6128 12.866 11.3235 13.0597 11.0049 13.1916C10.6864 13.3235 10.3449 13.3912 10.0001 13.3906C9.29927 13.3906 8.64068 13.1164 8.1438 12.6219C7.89964 12.3784 7.70602 12.0891 7.57409 11.7705C7.44216 11.4519 7.37452 11.1104 7.37505 10.7656C7.37505 10.0648 7.64927 9.40625 8.1438 8.90938C8.64068 8.41251 9.29927 8.14063 10.0001 8.14063C10.7008 8.14063 11.3594 8.41251 11.8563 8.90938C12.1005 9.15284 12.2941 9.44218 12.426 9.76075C12.5579 10.0793 12.6256 10.4208 12.6251 10.7656C12.6251 11.4664 12.3508 12.125 11.8563 12.6219Z" fill="#444444" fill-opacity="0.8"/>
</svg>
